<?xml version="1.0" encoding="utf-8"?>
<!-- Generator: Adobe Illustrator 23.0.1, SVG Export Plug-In . SVG Version: 6.00 Build 0)  -->
<svg version="1.1" id="Layer_1" xmlns="http://www.w3.org/2000/svg" xmlns:xlink="http://www.w3.org/1999/xlink" x="0px" y="0px"
	 viewBox="0 0 50 50" style="enable-background:new 0 0 50 50;" xml:space="preserve">
<style type="text/css">
	.st0{fill:#232323;}
	.st1{fill:#EAEAEA;}
	.st2{fill:none;stroke:#232323;stroke-miterlimit:10;}
</style>
<g>
	<path class="st0" d="M32.8,12.3c0.6,0,1.3,0,1.9-0.1c1.1,0,2.3-0.2,3.4-0.1c1.4,0.1,2.8,1.1,3.6,2.2c0.4,0.5,0.7,1.1,0.8,1.7
		c0.1,0.7,0,1.4,0,2.1c0,0.1,0,0.2,0,0.4c-0.1,0.9-0.1,1.7-0.2,2.6c-0.1,0.8-0.3,1.6-0.4,2.4c-0.1,1.6-0.1,3.3,0.4,4.9
		c0.2,0.6,0.3,1.2,0.3,1.9c0,0.3,0,0.6,0,0.9c0,0.9,0,1.8,0,2.7c0,1.3,0,2.6,0,3.9c0,1.4,0.1,2.9-0.3,4.2c-0.2,0.7-0.5,1.4-0.9,2
		c-1.1,1.9-2.8,3.3-4.8,4.2c-0.8,0.3-1.6,0.6-2.4,0.8C33.7,49,33.1,49,32.5,49c-0.8,0-1.6,0-2.4,0c-2.1,0-4.3,0-6.4,0
		c-1.7,0-3.3,0-5,0c-0.2,0-0.4,0-0.6,0c-0.2,0-0.3,0-0.5,0c-1.3-0.3-7.8-2-8.8-9.1c0-0.1,0-0.3,0-0.4c0-0.6,0-1.3-0.2-1.9
		c-0.1-0.4-0.3-0.7-0.6-1c-0.4-0.4-0.9-0.7-1.2-1.2c-0.3-0.4-0.4-0.9-0.5-1.4c-0.3-1.3-0.2-2.5-0.2-3.8c0-1,0-2,0-2.9
		c0-2.2,0-4.3,0-6.5c0-1.4-0.1-2.7,0.4-4c0.5-1,1.2-2,2.2-2.6c0.3-0.2,0.7-0.4,1-0.5c0.7-0.2,1.2-0.8,1.4-1.4
		c0.7-2.1,1.9-3.9,3.7-5.2c0.8-0.6,1.6-1,2.5-1.3c1-0.3,2-0.2,3-0.2c1.9,0,3.9,0,5.8,0c1.3,0,2.6,0,3.9,0c0,0,0,0,0.1,0
		c0.5,0,0.9,0.1,1.3,0.4c0.7,0.5,2,1.4,3,2.5C35.7,9.8,34.8,12.1,32.8,12.3C32.9,12.3,32.9,12.3,32.8,12.3z"/>
	<path class="st1" d="M9.2,19.3v12.8c0,0,2.2,4.4,2.5,0.6L12,19.3C12,19.3,11.7,15.5,9.2,19.3z"/>
	<path class="st1" d="M18.3,34.9l2.5,1.3h12.5l3.1-1.3v-5.6l-1.6-2.5c0,0,3.4-0.3,3.4-6.6c0,0,0.3-3.4-3.4-4.1h-15
		c0,0-3.1,0.3-3.4,3.1c0,0-1.3,5.9,3.1,7.5l-1.3,2.5V34.9z"/>
	<path class="st1" d="M30.5,39.6h-6.9c0,0-6.9-2.8-5,0c0,0,0.6,3.4,4.4,3.4h9.1c0,0,6.9-4.7,2.5-4.7L30.5,39.6z"/>
	<path class="st0" d="M19.9,19h14.7c0,0,0.9,0,0.9,0.9c0,0,0,4.4-2.2,4.4c0,0-2.5,0.6-4.1-0.3c0,0-2.2-1.9-4.4,0
		c0,0-2.5,0.9-3.4,0.6C21.4,24.6,17.7,23.4,19.9,19z"/>
	<ellipse class="st0" cx="25.5" cy="29.8" rx="1.3" ry="2"/>
	<ellipse class="st0" cx="28.9" cy="29.8" rx="1.3" ry="2"/>
	<circle class="st2" cx="23.6" cy="5.2" r="4.2"/>
</g>
</svg>
