<?xml version="1.0" encoding="utf-8"?>
<!-- Generator: Adobe Illustrator 23.0.1, SVG Export Plug-In . SVG Version: 6.00 Build 0)  -->
<svg version="1.1" id="Layer_1" xmlns="http://www.w3.org/2000/svg" xmlns:xlink="http://www.w3.org/1999/xlink" x="0px" y="0px"
	 viewBox="0 0 75 30" style="enable-background:new 0 0 75 30;" xml:space="preserve">
<style type="text/css">
	.st0{fill:#232323;}
	.st1{fill:#EAEAEA;}
	.st2{fill:none;stroke:#232323;stroke-miterlimit:10;}
	.st3{fill:#1ACAE2;}
	.st4{font-family:'Poppins-Medium';}
	.st5{font-size:9.1271px;}
	.st6{font-family:'Poppins-Light';}
	.st7{fill:#ED8080;}
</style>
<g>
	<path class="st0" d="M16,7.7c0.4,0,0.8,0,1.2,0c0.7,0,1.4-0.1,2,0c0.8,0.1,1.7,0.7,2.2,1.3c0.2,0.3,0.4,0.6,0.5,1
		c0.1,0.4,0,0.9,0,1.3c0,0.1,0,0.1,0,0.2c0,0.5,0,1-0.1,1.5c-0.1,0.5-0.2,0.9-0.2,1.4c-0.1,1,0,2,0.2,2.9c0.1,0.4,0.2,0.7,0.2,1.1
		c0,0.2,0,0.4,0,0.5c0,0.5,0,1.1,0,1.6c0,0.8,0,1.6,0,2.3c0,0.8,0.1,1.7-0.2,2.5c-0.1,0.4-0.3,0.8-0.5,1.2c-0.6,1.1-1.7,2-2.8,2.5
		c-0.5,0.2-0.9,0.4-1.4,0.5c-0.4,0.1-0.7,0-1.1,0c-0.5,0-0.9,0-1.4,0c-1.3,0-2.5,0-3.8,0c-1,0-2,0-3,0c-0.1,0-0.2,0-0.4,0
		c-0.1,0-0.2,0-0.3,0c-0.8-0.2-4.7-1.2-5.2-5.4c0-0.1,0-0.2,0-0.3c0-0.4,0-0.8-0.1-1.1c-0.1-0.2-0.2-0.4-0.4-0.6
		C1,22,0.7,21.8,0.5,21.5c-0.2-0.3-0.3-0.5-0.3-0.8C0,19.9,0,19.1,0,18.4c0-0.6,0-1.2,0-1.8c0-1.3,0-2.6,0-3.8
		c0-0.8-0.1-1.6,0.3-2.4C0.5,9.7,1,9.2,1.6,8.8C1.8,8.7,2,8.6,2.2,8.5C2.6,8.4,2.9,8.1,3,7.7c0.4-1.2,1.2-2.3,2.2-3.1
		C5.6,4.2,6.1,4,6.7,3.8c0.6-0.2,1.2-0.1,1.8-0.1c1.2,0,2.3,0,3.5,0c0.8,0,1.6,0,2.3,0c0,0,0,0,0,0c0.3,0,0.6,0.1,0.8,0.2
		c0.4,0.3,1.2,0.9,1.8,1.5C17.7,6.3,17.1,7.6,16,7.7C16,7.7,16,7.7,16,7.7z"/>
	<path class="st1" d="M1.9,11.9v7.6c0,0,1.3,2.6,1.5,0.4l0.2-8C3.6,11.9,3.4,9.7,1.9,11.9z"/>
	<path class="st1" d="M7.3,21.2L8.8,22h7.5l1.9-0.7v-3.4l-0.9-1.5c0,0,2.1-0.2,2.1-3.9c0,0,0.2-2.1-2.1-2.4h-9c0,0-1.9,0.2-2.1,1.9
		c0,0-0.7,3.5,1.9,4.5l-0.7,1.5V21.2z"/>
	<path class="st1" d="M14.6,24h-4.1c0,0-4.1-1.7-3,0c0,0,0.4,2.1,2.6,2.1h5.4c0,0,4.1-2.8,1.5-2.8L14.6,24z"/>
	<path class="st0" d="M8.2,11.7H17c0,0,0.6,0,0.6,0.6c0,0,0,2.6-1.3,2.6c0,0-1.5,0.4-2.4-0.2c0,0-1.3-1.1-2.6,0c0,0-1.5,0.6-2.1,0.4
		C9.1,15.1,6.9,14.3,8.2,11.7z"/>
	<ellipse class="st0" cx="11.6" cy="18.2" rx="0.7" ry="1.2"/>
	<ellipse class="st0" cx="13.6" cy="18.2" rx="0.7" ry="1.2"/>
	<circle class="st2" cx="10.5" cy="3.5" r="2.5"/>
</g>
<text transform="matrix(1 0 0 1 26.0708 15.8921)"><tspan x="0" y="0" class="st3 st4 st5">p</tspan><tspan x="6.6" y="0" class="st3 st6 st5">ac</tspan><tspan x="19.3" y="0" class="st7 st6 st5"> </tspan><tspan x="22.3" y="0" class="st0 st6 st5">pac</tspan><tspan x="0" y="8.8" class="st4 st5">back</tspan><tspan x="24.7" y="8.8" class="st3 st6 st5">pack</tspan></text>
</svg>
